HIERARCHY
ROOT hip
{
  OFFSET 0.00112043 5.09927 -9.65472
  CHANNELS 6 Xposition Yposition Zposition Zrotation Xrotation Yrotation
  JOINT abdomen
  {
    OFFSET 0 -1.186 -1.5018
    CHANNELS 3 Zrotation Xrotation Yrotation
    JOINT abdomen2
    {
      OFFSET 0 9.964 0.2134
      CHANNELS 3 Zrotation Xrotation Yrotation
      JOINT chest
      {
        OFFSET 0 13.134 -3.2573
        CHANNELS 3 Zrotation Xrotation Yrotation
        JOINT neck
        {
          OFFSET 0 20.686 -1.6905
          CHANNELS 3 Zrotation Xrotation Yrotation
          JOINT head
          {
            OFFSET 0 7.238 -0.1237
            CHANNELS 3 Zrotation Xrotation Yrotation
            End Site
            {
              OFFSET 0 0 0
            }
          }
        }
        JOINT lCollar
        {
          OFFSET 1.7069 20.075 5.0056
          CHANNELS 3 Zrotation Xrotation Yrotation
          JOINT lShldr
          {
            OFFSET 13.6458 -0.047 -4.849
            CHANNELS 3 Zrotation Xrotation Yrotation
            JOINT lForeArm
            {
              OFFSET 28.3255 -0.9759 2.2888
              CHANNELS 3 Zrotation Xrotation Yrotation
              JOINT lHand
              {
                OFFSET 22.1583 -0.53 10.8316
                CHANNELS 3 Zrotation Xrotation Yrotation
                JOINT lThumb1
                {
                  OFFSET 0.786 0.112 2.5817
                  CHANNELS 3 Zrotation Xrotation Yrotation
                  JOINT lThumb2
                  {
                    OFFSET 0.3601 -0.878 4.2331
                    CHANNELS 3 Zrotation Xrotation Yrotation
                    JOINT lThumb2_End
                    {
                      OFFSET 1.8127 -1.216 2.2227
                      CHANNELS 3 Zrotation Xrotation Yrotation
                      End Site
                      {
                        OFFSET 0.0181 -0.0122 0.0222
                      }
                    }
                  }
                }
                JOINT lCarpal1
                {
                  OFFSET 0.9571 1.114 1.7695
                  CHANNELS 3 Zrotation Xrotation Yrotation
                  JOINT lIndex1
                  {
                    OFFSET 4.1246 0.487 4.1451
                    CHANNELS 3 Zrotation Xrotation Yrotation
                    JOINT lIndex2
                    {
                      OFFSET 3.4052 -1.454 2.7682
                      CHANNELS 3 Zrotation Xrotation Yrotation
                      JOINT lIndex2_End
                      {
                        OFFSET 1.4531 -1.795 1.2713
                        CHANNELS 3 Zrotation Xrotation Yrotation
                        End Site
                        {
                          OFFSET 0.0145 -0.0179 0.0127
                        }
                      }
                    }
                  }
                  JOINT lMid1
                  {
                    OFFSET 5.6954 0.21 2.1184
                    CHANNELS 3 Zrotation Xrotation Yrotation
                    JOINT lMid2
                    {
                      OFFSET 3.9766 -1.54 2.3863
                      CHANNELS 3 Zrotation Xrotation Yrotation
                      JOINT lMid2_End
                      {
                        OFFSET 1.4042 -1.926 1.125
                        CHANNELS 3 Zrotation Xrotation Yrotation
                        End Site
                        {
                          OFFSET 0.014 -0.0193 0.0113
                        }
                      }
                    }
                  }
                }
                JOINT lCarpal2
                {
                  OFFSET 2.0956 0.66 -0.3894
                  CHANNELS 3 Zrotation Xrotation Yrotation
                  JOINT lRing1
                  {
                    OFFSET 5.0395 -0.09 2.4971
                    CHANNELS 3 Zrotation Xrotation Yrotation
                    JOINT lRing2
                    {
                      OFFSET 3.7921 -1.552 1.4806
                      CHANNELS 3 Zrotation Xrotation Yrotation
                      JOINT lRing2_End
                      {
                        OFFSET 1.4655 -1.808 0.9609
                        CHANNELS 3 Zrotation Xrotation Yrotation
                        End Site
                        {
                          OFFSET 0.0147 -0.0181 0.0096
                        }
                      }
                    }
                  }
                  JOINT lPinky1
                  {
                    OFFSET 4.9141 -1.269 0.3591
                    CHANNELS 3 Zrotation Xrotation Yrotation
                    JOINT lPinky2
                    {
                      OFFSET 3.1477 -1.685 0.8462
                      CHANNELS 3 Zrotation Xrotation Yrotation
                      JOINT lPinky2_End
                      {
                        OFFSET 0.8055 -1.585 0.7955
                        CHANNELS 3 Zrotation Xrotation Yrotation
                        End Site
                        {
                          OFFSET 0.0081 -0.0158 0.008
                        }
                      }
                    }
                  }
                }
              }
            }
          }
        }
        JOINT rCollar
        {
          OFFSET -1.7069 20.075 5.0056
          CHANNELS 3 Zrotation Xrotation Yrotation
          JOINT rShldr
          {
            OFFSET -13.6458 -0.047 -4.849
            CHANNELS 3 Zrotation Xrotation Yrotation
            JOINT rForeArm
            {
              OFFSET -28.3255 -0.9759 2.2888
              CHANNELS 3 Zrotation Xrotation Yrotation
              JOINT rHand
              {
                OFFSET -22.1583 -0.53 10.8316
                CHANNELS 3 Zrotation Xrotation Yrotation
                JOINT rThumb1
                {
                  OFFSET -0.786 0.112 2.5817
                  CHANNELS 3 Zrotation Xrotation Yrotation
                  JOINT rThumb2
                  {
                    OFFSET -0.3601 -0.878 4.2331
                    CHANNELS 3 Zrotation Xrotation Yrotation
                    JOINT rThumb2_End
                    {
                      OFFSET -1.8127 -1.216 2.2227
                      CHANNELS 3 Zrotation Xrotation Yrotation
                      End Site
                      {
                        OFFSET -0.0181 -0.0122 0.0222
                      }
                    }
                  }
                }
                JOINT rCarpal1
                {
                  OFFSET -0.9571 1.114 1.7695
                  CHANNELS 3 Zrotation Xrotation Yrotation
                  JOINT rIndex1
                  {
                    OFFSET -4.1246 0.487 4.1451
                    CHANNELS 3 Zrotation Xrotation Yrotation
                    JOINT rIndex2
                    {
                      OFFSET -3.4052 -1.454 2.7682
                      CHANNELS 3 Zrotation Xrotation Yrotation
                      JOINT rIndex2_End
                      {
                        OFFSET -1.4531 -1.795 1.2713
                        CHANNELS 3 Zrotation Xrotation Yrotation
                        End Site
                        {
                          OFFSET -0.0145 -0.018 0.0127
                        }
                      }
                    }
                  }
                  JOINT rMid1
                  {
                    OFFSET -5.6954 0.21 2.1184
                    CHANNELS 3 Zrotation Xrotation Yrotation
                    JOINT rMid2
                    {
                      OFFSET -3.9766 -1.54 2.3863
                      CHANNELS 3 Zrotation Xrotation Yrotation
                      JOINT rMid2_End
                      {
                        OFFSET -1.4042 -1.926 1.125
                        CHANNELS 3 Zrotation Xrotation Yrotation
                        End Site
                        {
                          OFFSET -0.014 -0.0193 0.0113
                        }
                      }
                    }
                  }
                }
                JOINT rCarpal2
                {
                  OFFSET -2.0956 0.66 -0.3894
                  CHANNELS 3 Zrotation Xrotation Yrotation
                  JOINT rRing1
                  {
                    OFFSET -5.0395 -0.09 2.4971
                    CHANNELS 3 Zrotation Xrotation Yrotation
                    JOINT rRing2
                    {
                      OFFSET -3.7921 -1.552 1.4806
                      CHANNELS 3 Zrotation Xrotation Yrotation
                      JOINT rRing2_End
                      {
                        OFFSET -1.4655 -1.808 0.9609
                        CHANNELS 3 Zrotation Xrotation Yrotation
                        End Site
                        {
                          OFFSET -0.0147 -0.0181 0.0096
                        }
                      }
                    }
                  }
                  JOINT rPinky1
                  {
                    OFFSET -4.9141 -1.269 0.3592
                    CHANNELS 3 Zrotation Xrotation Yrotation
                    JOINT rPinky2
                    {
                      OFFSET -3.1477 -1.685 0.8462
                      CHANNELS 3 Zrotation Xrotation Yrotation
                      JOINT rPinky2_End
                      {
                        OFFSET -0.8055 -1.585 0.7955
                        CHANNELS 3 Zrotation Xrotation Yrotation
                        End Site
                        {
                          OFFSET -0.0081 -0.0158 0.008
                        }
                      }
                    }
                  }
                }
              }
            }
          }
        }
      }
    }
  }
  JOINT lThigh
  {
    OFFSET 8.367 -8.2066 0.5982
    CHANNELS 3 Zrotation Xrotation Yrotation
    JOINT lShin
    {
      OFFSET 2.1923 -43.463 -0.4932
      CHANNELS 3 Zrotation Xrotation Yrotation
      JOINT lFoot
      {
        OFFSET 0.7333 -45.8593 -2.6451
        CHANNELS 3 Zrotation Xrotation Yrotation
        End Site
        {
          OFFSET 2.6618 -4.2699 12.3931
        }
      }
    }
  }
  JOINT rThigh
  {
    OFFSET -8.367 -8.2066 0.5982
    CHANNELS 3 Zrotation Xrotation Yrotation
    JOINT rShin
    {
      OFFSET -2.1923 -43.463 -0.4931
      CHANNELS 3 Zrotation Xrotation Yrotation
      JOINT rFoot
      {
        OFFSET -0.7333 -45.8593 -2.6451
        CHANNELS 3 Zrotation Xrotation Yrotation
        End Site
        {
          OFFSET -2.6618 -4.2699 12.3931
        }
      }
    }
  }
}
MOTION
Frames:	5
Frame Time:	0.0333333
42.3106 41.169 55.7134 0 67.595 -0 -0.40393 8.36911 -0.0496902 -0.813688 16.7384 -0.0396322 -0.813688 16.7384 -0.0396318 3.7367e-006 0.614949 4.06036e-006 -4.93612 -7.78926 -0.888693 -16.6287 2.40065 8.04944 36.3803 -29.6972 -63.4813 2.85208 -10.2208 1.7794 56.2146 -17.1232 9.57345 -7.28295e-031 8.74653e-015 4.77083e-015 3.18055e-015 9.54166e-015 1.59028e-015 6.36111e-015 1.11319e-014 3.18055e-015 -3.18055e-015 -3.97569e-016 -0 3.18055e-015 1.74931e-014 6.36111e-015 6.36111e-015 1.19271e-014 4.77083e-015 9.54166e-015 9.14409e-015 3.18055e-015 3.18055e-015 1.74931e-014 6.36111e-015 6.36111e-015 1.19271e-014 4.77083e-015 9.54166e-015 9.14409e-015 3.18055e-015 -3.18055e-015 -3.97569e-016 -0 3.18055e-015 1.74931e-014 6.36111e-015 6.36111e-015 1.19271e-014 4.77083e-015 9.54166e-015 9.14409e-015 3.18055e-015 3.18055e-015 1.74931e-014 6.36111e-015 6.36111e-015 1.19271e-014 4.77083e-015 9.54166e-015 9.14409e-015 3.18055e-015 16.1569 2.52238 -7.31082 -36.2812 -29.5034 64.2483 -4.81884 -10.2561 -3.16774 -56.2412 -17.3812 -10.0525 -2.20695e-032 7.95139e-016 1.59028e-015 3.18055e-015 0 7.95139e-016 3.18055e-015 3.18055e-015 -0 2.20695e-032 -7.95139e-016 1.59028e-015 6.36111e-015 -1.74931e-014 7.15625e-015 4.96564e-032 3.57812e-015 -7.95139e-016 -6.36111e-015 2.78299e-015 -1.59028e-015 6.36111e-015 -1.74931e-014 7.15625e-015 4.96564e-032 3.57812e-015 -7.95139e-016 -6.36111e-015 2.78299e-015 -1.59028e-015 2.20695e-032 -7.95139e-016 1.59028e-015 6.36111e-015 -1.74931e-014 7.15625e-015 4.96564e-032 3.57812e-015 -7.95139e-016 -6.36111e-015 2.78299e-015 -1.59028e-015 6.36111e-015 -1.74931e-014 7.15625e-015 4.96564e-032 3.57812e-015 -7.95139e-016 -6.36111e-015 2.78299e-015 -1.59028e-015 18.5985 -75.2767 25.9127 136.638 85.7129 -134.815 16.1626 59.2974 -6.93919 -18.7456 -75.2533 -26.1634 -135.569 85.6574 133.781 -16.1823 59.3067 6.92691 
42.3106 41.1659 55.7772 0 67.2951 -0 -0.404683 8.57363 -0.0468449 -0.816151 17.1474 -0.032183 -0.81615 17.1474 -0.0321835 5.17574e-006 2.17162 -2.47474e-006 -4.86543 -6.46338 -0.763818 -16.3875 1.88651 7.70535 36.3803 -29.6972 -63.4813 2.85209 -10.2208 1.77936 56.3835 -17.2035 9.71112 -3.18055e-015 6.36111e-015 1.59028e-015 3.18055e-015 8.34896e-015 1.59028e-015 0 7.55382e-015 -0 -3.18055e-015 1.59028e-015 -1.59028e-015 3.18055e-015 1.19271e-014 3.18055e-015 -3.18055e-015 5.56597e-015 1.59028e-015 3.18055e-015 5.56597e-015 1.59028e-015 3.18055e-015 1.19271e-014 3.18055e-015 -3.18055e-015 5.56597e-015 1.59028e-015 3.18055e-015 5.56597e-015 1.59028e-015 -3.18055e-015 1.59028e-015 -1.59028e-015 3.18055e-015 1.19271e-014 3.18055e-015 -3.18055e-015 5.56597e-015 1.59028e-015 3.18055e-015 5.56597e-015 1.59028e-015 3.18055e-015 1.19271e-014 3.18055e-015 -3.18055e-015 5.56597e-015 1.59028e-015 3.18055e-015 5.56597e-015 1.59028e-015 15.9577 1.99575 -7.03054 -36.2812 -29.5034 64.2483 -4.81885 -10.2561 -3.16773 -56.4067 -17.4444 -10.1957 -1.27145e-006 1.1038e-006 -2.74602e-007 -7.85939e-007 -1.54741e-006 1.4169e-007 1.59219e-006 1.56841e-007 -9.64272e-006 0 1.98785e-015 -0 -1.27145e-006 1.1038e-006 -2.74602e-007 -7.85939e-007 -1.54741e-006 1.4169e-007 1.59219e-006 1.56841e-007 -9.64272e-006 -1.27145e-006 1.1038e-006 -2.74602e-007 -7.85939e-007 -1.54741e-006 1.4169e-007 1.59219e-006 1.56841e-007 -9.64272e-006 0 1.98785e-015 -0 -1.27145e-006 1.1038e-006 -2.74602e-007 -7.85939e-007 -1.54741e-006 1.4169e-007 1.59219e-006 1.56841e-007 -9.64272e-006 -1.27145e-006 1.1038e-006 -2.74602e-007 -7.85939e-007 -1.54741e-006 1.4169e-007 1.59219e-006 1.56841e-007 -9.64272e-006 18.149 -74.873 25.4598 136.65 85.7121 -134.827 16.1625 59.298 -6.93935 -18.2882 -74.851 -25.702 -135.58 85.6566 133.792 -16.1821 59.3073 6.92704 
42.3105 41.1628 55.8408 0 66.9952 -0 -0.405422 8.77801 -0.0439879 -0.818629 17.5561 -0.024691 -0.818629 17.5561 -0.0246908 2.57899e-007 3.72771 -6.10591e-007 -4.79786 -5.13839 -0.640976 -16.1495 1.37097 7.36354 36.3803 -29.6972 -63.4813 2.8521 -10.2208 1.77938 56.5527 -17.2834 9.8491 3.18055e-015 0 -0 -3.18055e-015 0 -1.59028e-015 -6.36111e-015 -1.19271e-015 1.59028e-015 6.36111e-015 -7.95139e-016 -1.59028e-015 3.18055e-015 2.38542e-015 3.18055e-015 -3.18055e-015 -3.97569e-016 -1.59028e-015 3.31043e-032 -1.19271e-015 1.59028e-015 3.18055e-015 2.38542e-015 3.18055e-015 -3.18055e-015 -3.97569e-016 -1.59028e-015 3.31043e-032 -1.19271e-015 1.59028e-015 6.36111e-015 -7.95139e-016 -1.59028e-015 3.18055e-015 2.38542e-015 3.18055e-015 -3.18055e-015 -3.97569e-016 -1.59028e-015 3.31043e-032 -1.19271e-015 1.59028e-015 3.18055e-015 2.38542e-015 3.18055e-015 -3.18055e-015 -3.97569e-016 -1.59028e-015 3.31043e-032 -1.19271e-015 1.59028e-015 15.7611 1.46818 -6.75219 -36.2812 -29.5034 64.2483 -4.81885 -10.2561 -3.16774 -56.5724 -17.5073 -10.3391 3.18055e-015 0 -1.59028e-015 3.18055e-015 1.59028e-015 -1.59028e-015 4.96564e-032 3.57812e-015 -7.95139e-016 3.18055e-015 -1.59028e-015 -1.59028e-015 4.80012e-031 -1.15295e-014 2.38542e-015 -3.18055e-015 3.57812e-015 -1.59028e-015 -3.18055e-015 3.97569e-015 -7.95139e-016 4.80012e-031 -1.15295e-014 2.38542e-015 -3.18055e-015 3.57812e-015 -1.59028e-015 -3.18055e-015 3.97569e-015 -7.95139e-016 3.18055e-015 -1.59028e-015 -1.59028e-015 4.80012e-031 -1.15295e-014 2.38542e-015 -3.18055e-015 3.57812e-015 -1.59028e-015 -3.18055e-015 3.97569e-015 -7.95139e-016 4.80012e-031 -1.15295e-014 2.38542e-015 -3.18055e-015 3.57812e-015 -1.59028e-015 -3.18055e-015 3.97569e-015 -7.95139e-016 17.7124 -74.4656 25.0204 136.626 85.7138 -134.803 16.1622 59.2985 -6.93944 -17.8523 -74.4473 -25.2623 -135.584 85.6564 133.797 -16.1819 59.3078 6.92718 
42.3105 41.1597 55.9042 0 66.6952 -0 -0.406146 8.98215 -0.0411199 -0.821122 17.9643 -0.0171567 -0.821122 17.9644 -0.0171565 -5.50316e-007 5.281 7.53977e-007 -4.73332 -3.8147 -0.520055 -15.9146 0.854169 7.02402 36.3803 -29.6972 -63.4813 2.85212 -10.2208 1.77938 56.7221 -17.3629 9.98738 3.18055e-015 0 -1.59028e-015 -3.18055e-015 3.18055e-015 3.18055e-015 -6.36111e-015 2.38542e-015 1.59028e-015 3.18055e-015 -3.18055e-015 -3.18055e-015 -3.18055e-015 -3.97569e-016 7.95139e-015 3.18055e-015 3.57812e-015 -0 -2.86904e-031 5.1684e-015 3.18055e-015 -3.18055e-015 -3.97569e-016 7.95139e-015 3.18055e-015 3.57812e-015 -0 -2.86904e-031 5.1684e-015 3.18055e-015 3.18055e-015 -3.18055e-015 -3.18055e-015 -3.18055e-015 -3.97569e-016 7.95139e-015 3.18055e-015 3.57812e-015 -0 -2.86904e-031 5.1684e-015 3.18055e-015 -3.18055e-015 -3.97569e-016 7.95139e-015 3.18055e-015 3.57812e-015 -0 -2.86904e-031 5.1684e-015 3.18055e-015 15.5671 0.939773 -6.47577 -36.2812 -29.5034 64.2483 -4.81885 -10.2561 -3.16772 -56.7383 -17.5697 -10.4828 2.75869e-032 -1.98785e-015 7.95139e-016 3.18055e-015 3.97569e-016 7.95139e-016 3.18055e-015 -1.59028e-015 7.95139e-016 -3.18055e-015 -7.95139e-016 -0 -1.27222e-014 -1.23246e-014 6.36111e-015 -3.18055e-015 -5.1684e-015 1.59028e-015 6.36111e-015 -3.18055e-015 -0 -1.27222e-014 -1.23246e-014 6.36111e-015 -3.18055e-015 -5.1684e-015 1.59028e-015 6.36111e-015 -3.18055e-015 -0 -3.18055e-015 -7.95139e-016 -0 -1.27222e-014 -1.23246e-014 6.36111e-015 -3.18055e-015 -5.1684e-015 1.59028e-015 6.36111e-015 -3.18055e-015 -0 -1.27222e-014 -1.23246e-014 6.36111e-015 -3.18055e-015 -5.1684e-015 1.59028e-015 6.36111e-015 -3.18055e-015 -0 17.3155 -74.0624 24.6197 136.663 85.7111 -134.841 16.1621 59.2992 -6.9396 -17.4358 -74.042 -24.842 -135.578 85.6568 133.791 -16.1818 59.3084 6.92733 
42.3105 41.1565 55.9675 0 66.3954 -0 -0.406855 9.18597 -0.0382434 -0.823629 18.372 -0.00958504 -0.82363 18.372 -0.00958447 -3.204e-008 6.83143 5.77885e-007 -4.67175 -2.49265 -0.400937 -15.6829 0.336123 6.68675 36.3803 -29.6972 -63.4813 2.8521 -10.2208 1.77935 56.8918 -17.442 10.126 9.05088e-007 -1.21873e-006 -1.10604e-006 9.41433e-007 -1.92922e-007 -1.07054e-005 -4.94975e-007 -6.15206e-007 8.5716e-007 -6.36111e-015 0 -0 9.05088e-007 -1.21873e-006 -1.10604e-006 9.41433e-007 -1.92922e-007 -1.07054e-005 -4.94975e-007 -6.15206e-007 8.5716e-007 9.05088e-007 -1.21873e-006 -1.10604e-006 9.41433e-007 -1.92922e-007 -1.07054e-005 -4.94975e-007 -6.15206e-007 8.5716e-007 -6.36111e-015 0 -0 9.05088e-007 -1.21873e-006 -1.10604e-006 9.41433e-007 -1.92922e-007 -1.07054e-005 -4.94975e-007 -6.15206e-007 8.5716e-007 9.05088e-007 -1.21873e-006 -1.10604e-006 9.41433e-007 -1.92922e-007 -1.07054e-005 -4.94975e-007 -6.15206e-007 8.5716e-007 15.3758 0.41057 -6.20124 -36.2812 -29.5034 64.2483 -4.81886 -10.2561 -3.16773 -56.9044 -17.6317 -10.6267 6.36111e-015 -1.98785e-015 7.95139e-016 3.18055e-015 -7.95139e-016 -0 3.18055e-015 -3.57812e-015 1.59028e-015 6.36111e-015 -1.98785e-015 7.95139e-016 3.18055e-015 -8.74653e-015 3.18055e-015 6.36111e-015 0 -1.59028e-015 3.18055e-015 0 7.95139e-016 3.18055e-015 -8.74653e-015 3.18055e-015 6.36111e-015 0 -1.59028e-015 3.18055e-015 0 7.95139e-016 6.36111e-015 -1.98785e-015 7.95139e-016 3.18055e-015 -8.74653e-015 3.18055e-015 6.36111e-015 0 -1.59028e-015 3.18055e-015 0 7.95139e-016 3.18055e-015 -8.74653e-015 3.18055e-015 6.36111e-015 0 -1.59028e-015 3.18055e-015 0 7.95139e-016 16.9273 -73.6552 24.2283 136.66 85.7113 -134.838 16.1619 59.2997 -6.93973 -17.0467 -73.6378 -24.4488 -135.597 85.6555 133.81 -16.1815 59.3088 6.92742 
